<?xml version="1.0" encoding="UTF-8" standalone="no"?>
<!-- Created with Inkscape (http://www.inkscape.org/) -->

<svg
   xmlns:dc="http://purl.org/dc/elements/1.1/"
   xmlns:cc="http://creativecommons.org/ns#"
   xmlns:rdf="http://www.w3.org/1999/02/22-rdf-syntax-ns#"
   xmlns:svg="http://www.w3.org/2000/svg"
   xmlns="http://www.w3.org/2000/svg"
   xmlns:sodipodi="http://sodipodi.sourceforge.net/DTD/sodipodi-0.dtd"
   xmlns:inkscape="http://www.inkscape.org/namespaces/inkscape"
   width="46.357822mm"
   height="46.727219mm"
   viewBox="0 0 46.357822 46.727219"
   version="1.1"
   id="svg8"
   inkscape:version="0.92.4 (5da689c313, 2019-01-14)"
   sodipodi:docname="logo-boson-geotab.svg">
  <defs
     id="defs2">
    <clipPath
       clipPathUnits="userSpaceOnUse"
       id="clipPath831">
      <path
         d="M 0,612 H 792 V 0 H 0 Z"
         id="path829"
         inkscape:connector-curvature="0" />
    </clipPath>
    <clipPath
       clipPathUnits="userSpaceOnUse"
       id="clipPath831-2">
      <path
         d="M 0,612 H 792 V 0 H 0 Z"
         id="path829-0"
         inkscape:connector-curvature="0" />
    </clipPath>
  </defs>
  <sodipodi:namedview
     id="base"
     pagecolor="#ffffff"
     bordercolor="#666666"
     borderopacity="1.0"
     inkscape:pageopacity="0.0"
     inkscape:pageshadow="2"
     inkscape:zoom="0.35"
     inkscape:cx="-336.68038"
     inkscape:cy="-31.696594"
     inkscape:document-units="mm"
     inkscape:current-layer="g823"
     showgrid="false"
     fit-margin-top="0"
     fit-margin-left="0"
     fit-margin-right="0"
     fit-margin-bottom="0"
     inkscape:window-width="1920"
     inkscape:window-height="1017"
     inkscape:window-x="-8"
     inkscape:window-y="-8"
     inkscape:window-maximized="1" />
  <metadata
     id="metadata5">
    <rdf:RDF>
      <cc:Work
         rdf:about="">
        <dc:format>image/svg+xml</dc:format>
        <dc:type
           rdf:resource="http://purl.org/dc/dcmitype/StillImage" />
        <dc:title></dc:title>
      </cc:Work>
    </rdf:RDF>
  </metadata>
  <g
     inkscape:label="Layer 1"
     inkscape:groupmode="layer"
     id="layer1"
     transform="translate(-72.071089,-93.719724)">
    <g
       transform="translate(-21.92262,46.113097)"
       id="layer1-7"
       inkscape:label="Layer 1">
      <g
         id="g823"
         inkscape:label="Logo BosonTI"
         transform="matrix(0.35277777,0,0,-0.35277777,-48.11915,208.27901)">
        <g
           transform="translate(-97.42179,66.428573)"
           inkscape:export-ydpi="96"
           inkscape:export-xdpi="96"
           inkscape:export-filename="D:\Imagenes\Icons and images\boson-darkmode.png"
           style="fill:#66788c;fill-opacity:1"
           id="g825">
          <g
             style="fill:#66788c;fill-opacity:1"
             id="g827"
             clip-path="url(#clipPath831-2)">
            <g
               style="fill:#66788c;fill-opacity:1"
               id="g833"
               transform="translate(533.4174,343.8666)">
              <path
                 d="m 0,0 c 4.259,4.259 10.646,7.909 13.384,9.126 4.867,2.433 10.951,4.562 15.818,6.692 5.171,2.433 9.734,4.562 13.08,8.821 1.521,1.825 3.346,4.867 4.258,7.3 0.305,0.609 2.738,6.692 2.738,7.909 0,0.609 -5.475,2.738 -6.388,3.042 -2.433,0.913 -6.692,1.825 -8.517,2.129 -1.825,0.304 -4.563,0 -6.997,0 -2.433,0 -5.475,-0.608 -10.646,-2.433 C 11.559,40.761 5.78,36.807 3.042,34.677 -1.521,31.331 -3.955,29.506 -11.255,21.901 -13.08,19.772 -20.685,10.646 -23.118,6.692 -25.247,3.65 -26.16,2.129 -27.985,-1.825 c -0.913,-1.521 -1.521,-2.738 -2.129,-4.563 -0.609,-0.913 -2.434,-6.692 -2.434,-7.605 l -0.608,-7.3 v -0.912 c 0,-9.734 3.346,-16.122 6.692,-22.51 1.825,-3.955 9.125,-13.689 12.471,-16.73 5.172,-5.171 9.126,-9.734 14.906,-13.993 4.562,-3.346 12.775,-10.342 20.684,-11.255 l 5.475,-0.608 c 3.346,0 8.213,0.304 11.559,0.912 3.651,0.913 8.518,3.042 11.864,4.563 4.258,2.434 9.125,6.084 13.08,8.517 5.475,3.955 10.038,8.822 15.209,13.689 6.996,6.996 19.468,23.726 19.468,37.719 v 1.521 l -0.609,6.387 c -8.821,-14.904 -9.125,-11.863 -17.338,-19.163 -5.78,-5.171 -12.168,-9.734 -17.643,-11.863 -3.954,-1.217 -13.08,-3.955 -18.251,-5.171 -5.171,-1.217 -7.605,-2.738 -19.468,-10.343 0.609,2.129 -0.304,4.259 7.909,8.821 8.213,4.563 17.643,4.259 31.331,12.168 8.213,4.563 13.08,9.125 16.426,11.863 3.346,2.738 17.034,14.601 13.993,18.251 -2.434,-6.083 -8.214,-10.038 -9.126,-10.95 -4.867,-4.563 -11.559,-10.647 -17.339,-14.601 -6.996,-4.867 -13.384,-6.997 -21.292,-9.126 -7.909,-2.129 -16.731,0.609 -24.639,-4.563 -0.609,-0.304 -3.651,-4.258 -7.605,-8.212 v 0.912 c 4.259,10.342 9.734,14.297 15.513,13.992 19.468,-0.912 25.552,1.826 37.111,10.647 5.171,3.65 23.422,18.555 24.031,26.768 -11.864,-14.905 -17.643,-18.859 -18.86,-20.076 -6.084,-5.78 -13.688,-9.734 -18.86,-11.559 -3.954,-0.913 -7.3,-1.217 -10.95,-0.913 -9.734,0.609 -20.685,3.955 -27.985,-4.562 -1.825,-1.825 -3.65,-3.955 -7.301,-10.647 0,6.996 11.255,21.293 19.164,20.381 5.78,-0.609 6.388,-3.042 18.555,-2.13 12.168,0.913 21.293,9.126 24.943,12.472 2.434,2.129 4.868,5.779 8.214,8.517 7.604,6.996 7.908,14.297 7.908,14.297 -3.346,-6.388 -5.171,-7.909 -8.213,-11.255 -5.475,-6.084 -12.471,-14.905 -20.988,-17.947 -3.651,-1.521 -6.084,-3.042 -12.472,-3.042 -6.084,0 -12.167,4.563 -18.859,4.563 -11.255,0 -16.731,-11.255 -23.423,-18.251 0.304,3.65 6.997,12.471 9.126,14.905 2.737,3.65 8.821,7.909 15.209,7.909 5.475,0 10.951,-5.476 15.818,-5.476 14.601,0 26.464,9.734 32.852,20.989 0.912,1.825 5.475,10.038 5.779,15.818 -4.563,-7.301 -4.258,-10.951 -13.384,-21.597 -5.171,-6.692 -15.513,-11.864 -24.03,-11.559 -2.13,0 -6.693,3.041 -8.214,3.954 -3.346,2.129 -6.387,3.042 -10.342,3.042 -14.297,-3.042 -15.209,-8.213 -27.377,-21.597 4.867,11.559 8.518,13.688 11.255,16.122 7.605,6.387 12.168,8.212 18.251,8.517 5.476,0.304 11.255,-4.563 16.731,-5.171 8.213,-0.913 17.034,4.258 21.597,10.95 C 70.875,0 74.221,6.388 75.134,17.643 73.613,12.776 71.788,9.734 69.962,6.084 68.137,2.434 62.358,-5.475 59.924,-7.605 c -2.433,-2.129 -5.171,-4.562 -12.167,-5.779 -5.171,0 -10.646,2.737 -16.122,3.65 -6.083,0.913 -9.429,0.913 -13.688,-0.913 -9.734,-4.562 -16.426,-13.688 -24.335,-20.684 3.042,8.213 15.209,17.643 20.076,20.684 4.259,3.042 12.168,5.476 18.86,5.172 6.692,-0.304 11.255,-3.346 19.163,-1.521 10.038,2.129 15.818,23.422 17.643,31.635 C 59.924,4.563 59.62,1.825 50.495,-1.217 47.149,-2.129 39.848,-0.912 35.894,-0.912 20.684,-1.521 15.513,-6.692 12.776,-7.909 10.038,-9.126 -0.609,-15.818 -9.126,-24.335 c 4.259,8.517 17.643,17.034 20.381,18.556 4.258,2.433 8.821,4.867 19.772,6.996 10.95,2.129 22.509,-0.609 27.072,14.297 0.609,2.433 2.434,10.646 2.434,12.775 C 57.795,20.38 56.578,17.643 54.753,14.905 48.669,4.867 40.457,7.605 32.244,5.78 24.03,3.954 22.814,3.65 17.643,1.825 12.472,0 5.78,-3.954 -7.909,-14.601 -1.217,-5.475 3.346,-3.346 5.475,-1.825 12.776,2.738 24.943,8.213 33.46,10.951 c 2.738,0.912 6.692,1.521 10.039,3.954 3.346,2.433 7.908,10.342 8.517,17.643 C 48.365,22.51 45.628,20.076 41.977,17.643 38.327,15.209 28.593,11.863 25.856,11.255 23.118,10.646 16.73,8.517 11.255,6.084 8.821,4.867 5.171,3.346 0,0"
                 style="fill:#66788c;fill-opacity:1;fill-rule:evenodd;stroke:none"
                 id="path835"
                 inkscape:connector-curvature="0" />
            </g>
          </g>
        </g>
      </g>
    </g>
  </g>
</svg>
