<?xml version="1.0" encoding="UTF-8"?>
<svg xmlns="http://www.w3.org/2000/svg" xmlns:xlink="http://www.w3.org/1999/xlink" width="26px" height="24px" viewBox="0 0 26 24" version="1.1">
<g id="surface1">
<path style=" stroke:none;fill-rule:nonzero;fill:rgb(0%,0%,0%);fill-opacity:1;" d="M 12.851562 1.054688 C 12.730469 1.417969 12.523438 2.046875 12.390625 2.449219 C 12.257812 2.851562 11.917969 3.890625 11.632812 4.757812 C 11.347656 5.621094 10.886719 7.019531 10.609375 7.859375 L 10.109375 9.390625 L 5.316406 9.390625 C 2.683594 9.390625 0.527344 9.394531 0.527344 9.40625 C 0.527344 9.414062 0.875 9.667969 1.296875 9.972656 C 1.714844 10.273438 3.441406 11.511719 5.128906 12.722656 C 6.816406 13.933594 8.210938 14.9375 8.234375 14.957031 C 8.273438 14.996094 8.34375 14.765625 7.378906 17.691406 C 7 18.851562 6.679688 19.820312 6.105469 21.574219 C 5.816406 22.445312 5.523438 23.339844 5.449219 23.5625 C 5.375 23.785156 5.320312 23.972656 5.328125 23.976562 C 5.34375 23.988281 4.847656 24.34375 9.210938 21.210938 C 11.265625 19.734375 12.980469 18.503906 13.015625 18.480469 L 13.082031 18.433594 L 14.628906 19.546875 C 19.597656 23.121094 20.832031 24 20.835938 23.992188 C 20.839844 23.988281 20.742188 23.683594 20.621094 23.308594 C 20.496094 22.9375 20.183594 21.976562 19.917969 21.179688 C 18.878906 18.015625 18.472656 16.773438 18.269531 16.160156 C 17.976562 15.265625 17.894531 15.015625 17.894531 14.988281 C 17.894531 14.976562 19.632812 13.722656 21.753906 12.199219 C 23.878906 10.675781 25.613281 9.417969 25.613281 9.410156 C 25.613281 9.398438 23.769531 9.386719 20.828125 9.386719 L 16.039062 9.378906 L 15.707031 8.363281 C 15.523438 7.804688 15.15625 6.683594 14.890625 5.875 C 14.621094 5.0625 14.109375 3.503906 13.75 2.410156 C 13.390625 1.3125 13.089844 0.410156 13.082031 0.402344 C 13.074219 0.390625 12.972656 0.683594 12.851562 1.054688 Z M 12.851562 1.054688 "/>
</g>
</svg>
